# xmcd
# 
# Track frame offsets:
#     150
#     29495
#     52957
#     69270
#     94867
#     119170
#     142487
#     166990
#     186812
#     208565
#     235632
#     254707
# 
# Disc length: 3673
# 
# Revision: 4
# Processed by: cddbd v1.5.2PL0 Copyright (c) Steve Scherf et al.
# Submitted via: fre:ac v1.0.17
# 
DISCID=b40e570c
DTITLE=徳永英明 - カガヤキナガラ
DYEAR=2003
DGENRE=Acoustic
TTITLE0=僕のそばに
TTITLE1=永遠の果てに
TTITLE2=夢を信じて
TTITLE3=壊れかけのRadio
TTITLE4=I LOVE YOU
TTITLE5=call
TTITLE6=青い契り
TTITLE7=レイニーブルー
TTITLE8=LOVE IS ALL
TTITLE9=最後の言い訳
TTITLE10=君は君でいたいのに
TTITLE11=輝きながら・・・
EXTD=YEAR: 2003
EXTT0=
EXTT1=
EXTT2=
EXTT3=
EXTT4=
EXTT5=
EXTT6=
EXTT7=
EXTT8=
EXTT9=
EXTT10=
EXTT11=
PLAYORDER=
